<?xml version='1.0' encoding='iso-8859-1'?>
<!DOCTYPE svg PUBLIC '-//W3C//DTD SVG 1.1//EN' 'http://www.w3.org/Graphics/SVG/1.1/DTD/svg11.dtd'>
<svg version="1.1" xmlns="http://www.w3.org/2000/svg" viewBox="0 0 470.551 470.551" xmlns:xlink="http://www.w3.org/1999/xlink" enable-background="new 0 0 470.551 470.551">
  <g>
    <path d="m360.036,119.389c-16.711-32.613-40.761-63.254-67.722-86.278-18.142-15.494-35.228-25.665-53.773-32.009l-3.223-1.102-3.225,1.094c-18.384,6.233-34.615,15.781-52.625,30.958-27.301,23.005-51.69,53.827-68.674,86.79-32.521,63.136-34.345,126.271-5.133,177.777 19.766,34.836 61.058,67.011 119.62,93.281v80.651h20v-80.651c58.56-26.271 99.848-58.441 119.609-93.268 29.125-51.334 27.402-114.28-4.854-177.243zm-12.541,167.372c-16.501,29.081-52.523,57.586-102.214,81.115v-63.333l45.124-47.507-14.501-13.773-30.623,32.24v-61.518l45.124-47.507-14.501-13.773-30.623,32.24v-54.852h-20v54.852l-30.623-32.24-14.501,13.773 45.124,47.507v61.518l-30.623-32.24-14.501,13.773 45.124,47.507v63.333c-49.694-23.528-85.72-52.038-102.224-81.126-34.77-61.305-11.467-125.776 5.518-158.749 15.802-30.668 38.453-59.313 63.782-80.655 14.924-12.576 28.304-20.747 42.936-26.168 15.02,5.605 28.739,14.079 44.035,27.142 25.022,21.368 47.364,49.846 62.911,80.189 29.08,56.769 30.948,112.971 5.256,158.252z"/>
  </g>
</svg>
